<?xml version="1.0" standalone="no"?>
<!DOCTYPE svg PUBLIC "-//W3C//DTD SVG 20010904//EN"
 "http://www.w3.org/TR/2001/REC-SVG-20010904/DTD/svg10.dtd">
<svg version="1.0" xmlns="http://www.w3.org/2000/svg"
 width="512.000000pt" height="512.000000pt" viewBox="0 0 512.000000 512.000000"
 preserveAspectRatio="xMidYMid meet">
<metadata>
Created by potrace 1.11, written by Peter Selinger 2001-2013
</metadata>
<g transform="translate(0.000000,512.000000) scale(0.100000,-0.100000)"
fill="#000000" stroke="none">
<path d="M2165 3883 c-30 -8 -64 -33 -85 -63 -18 -25 -54 -145 -326 -1070
-161 -551 -162 -555 -128 -671 26 -87 223 -500 261 -547 59 -72 127 -108 384
-204 327 -122 313 -122 644 -9 265 91 320 117 370 173 53 58 77 115 151 363
93 311 93 297 -10 690 -207 793 -191 741 -255 803 -30 28 -748 451 -881 518
-30 16 -97 25 -125 17z m50 -123 c-14 -15 -21 -17 -26 -8 -11 17 -2 28 23 28
21 0 21 -1 3 -20z m95 -32 c22 -13 40 -25 40 -28 0 -3 -24 -30 -54 -59 l-54
-54 -18 57 -18 56 24 25 c29 31 31 31 80 3z m127 -73 c23 -14 43 -27 43 -28 0
-1 -42 -45 -94 -96 l-94 -94 -18 57 -18 57 64 64 c36 36 66 65 69 65 2 0 24
-11 48 -25z m160 -93 c9 -5 -29 -49 -121 -141 l-134 -134 -18 57 -18 57 104
104 103 104 36 -19 c20 -11 41 -23 48 -28z m94 -54 c22 -12 39 -24 39 -27 0
-4 -76 -82 -170 -176 l-169 -169 -11 30 c-31 81 -35 74 116 225 76 76 143 139
148 139 4 0 26 -10 47 -22z m119 -68 c21 -11 41 -23 44 -28 3 -5 -89 -102
-204 -217 -141 -141 -211 -204 -214 -194 -3 7 -12 32 -20 54 l-14 40 181 183
c100 100 183 182 185 182 1 0 20 -9 42 -20z m135 -76 l47 -27 -248 -248 c-137
-137 -251 -249 -254 -249 -3 0 -12 24 -21 53 l-16 52 221 223 c121 122 221
222 222 222 1 0 23 -12 49 -26z m133 -82 l34 -25 -72 -72 c-55 -55 -71 -78
-66 -91 6 -15 19 -5 81 56 82 82 80 82 100 -9 6 -29 3 -37 -31 -72 -32 -33
-36 -41 -24 -49 11 -7 22 -2 40 15 15 14 29 25 32 25 4 0 12 -25 19 -56 l12
-55 -134 -135 -134 -135 -55 6 c-30 4 -59 9 -64 12 -4 3 22 35 58 72 50 50 63
70 56 81 -8 12 -25 0 -89 -64 l-79 -78 -53 7 c-30 4 -58 10 -63 12 -4 3 45 59
110 124 96 97 115 119 100 125 -14 5 -46 -21 -140 -115 -74 -74 -129 -121
-141 -121 -39 0 -63 12 -69 33 -5 18 39 67 256 284 144 144 267 259 272 256 6
-3 26 -17 44 -31z m65 -592 l-103 -105 -37 38 -38 37 125 125 125 125 16 -58
16 -57 -104 -105z m130 -1 l15 -57 -74 -73 -74 -74 -37 38 -38 37 95 95 c52
52 95 93 96 92 1 -1 9 -27 17 -58z m12 -258 l-45 -46 -37 38 -38 37 65 65 65
66 18 -58 17 -57 -45 -45z m70 -62 c10 -38 11 -57 3 -66 -17 -21 -31 -16 -62
23 l-28 36 33 34 c18 18 34 32 36 30 3 -2 11 -28 18 -57z m35 -126 c0 -13 -3
-13 -15 -3 -8 7 -12 16 -9 21 8 13 24 1 24 -18z"/>
<path d="M3055 2986 c-38 -17 -80 -62 -95 -100 -6 -16 -9 -30 -7 -32 2 -2 36
30 77 71 75 76 79 85 25 61z"/>
</g>
</svg>
